<?xml version="1.0" encoding="iso-8859-1"?>
<!-- Generator: Adobe Illustrator 19.0.0, SVG Export Plug-In . SVG Version: 6.00 Build 0)  -->
<svg version="1.1" id="Capa_1" xmlns="http://www.w3.org/2000/svg" xmlns:xlink="http://www.w3.org/1999/xlink" x="0px" y="0px"
	 viewBox="0 0 512 512" style="enable-background:new 0 0 512 512;" xml:space="preserve">
<g>
	<g>
		<g>
			<rect x="240" y="240" width="32" height="32"/>
			<path d="M439.296,96H480V64h-53.008L416,35.424L405.008,64H106.992L96,35.424L85.008,64H32v32h40.704L0,285.024V288
				c0,53.019,42.981,96,96,96s96-42.981,96-96v-2.976L119.296,96H192v64h48v48h32v-48h48V96h72.704L320,285.024V288
				c0,53.019,42.981,96,96,96s96-42.981,96-96v-2.976L439.296,96z M96,352c-28.07-0.081-52.801-18.47-60.96-45.328h121.92
				C148.801,333.53,124.07,351.919,96,352z M153.728,274.672H38.272L96,124.576L153.728,274.672z M288,128h-64V96h64V128z
				 M416,124.576l57.728,150.096H358.272L416,124.576z M416,352c-28.07-0.081-52.801-18.47-60.96-45.328h121.92
				C468.801,333.53,444.07,351.919,416,352z"/>
			<path d="M336,416h-64V304h-32v112h-64v64h-32v32h224v-32h-32V416z M304,480h-96v-32h96V480z"/>
			<rect x="240" width="32" height="32"/>
		</g>
	</g>
</g>
<g>
</g>
<g>
</g>
<g>
</g>
<g>
</g>
<g>
</g>
<g>
</g>
<g>
</g>
<g>
</g>
<g>
</g>
<g>
</g>
<g>
</g>
<g>
</g>
<g>
</g>
<g>
</g>
<g>
</g>
</svg>
